<svg xmlns="http://www.w3.org/2000/svg" viewBox="0 0 224 64" fill="none">
  <!-- Marquise cut gem icon — white version for dark footer -->
  <g transform="translate(0,9)" stroke="#FFFFFF" stroke-width="1.2" stroke-linecap="round" stroke-linejoin="round" fill="none">
    <path d="M16,0 Q32,23 16,46 Q0,23 16,0Z"/>
    <path d="M16,8 L22,15 L26,23 L22,31 L16,38 L10,31 L6,23 L10,15Z"/>
    <line x1="16" y1="0" x2="10" y2="15"/>
    <line x1="16" y1="0" x2="22" y2="15"/>
    <line x1="16" y1="46" x2="10" y2="31"/>
    <line x1="16" y1="46" x2="22" y2="31"/>
    <line x1="0" y1="23" x2="10" y2="15"/>
    <line x1="0" y1="23" x2="10" y2="31"/>
    <line x1="32" y1="23" x2="22" y2="15"/>
    <line x1="32" y1="23" x2="22" y2="31"/>
  </g>
  <!-- White wordmark -->
  <text
    x="46" y="26"
    font-family="'Hanken Grotesk','Inter','Helvetica Neue',Helvetica,Arial,sans-serif"
    font-size="18" font-weight="500" letter-spacing="3.5"
    fill="#FFFFFF">JEWELRY</text>
  <text
    x="46" y="50"
    font-family="'Hanken Grotesk','Inter','Helvetica Neue',Helvetica,Arial,sans-serif"
    font-size="18" font-weight="500" letter-spacing="3.5"
    fill="#FFFFFF">ECOMMERCE</text>
</svg>
