<svg xmlns="http://www.w3.org/2000/svg" viewBox="0 0 256 256"><defs><style>.cls-1,.cls-3,.cls-5{fill:#fbfbfb;}.cls-1,.cls-2,.cls-3,.cls-6{stroke:#2b2b33;}.cls-1,.cls-2,.cls-3,.cls-4,.cls-6,.cls-7{stroke-miterlimit:10;}.cls-2,.cls-4{fill:#2b2b33;}.cls-2,.cls-3,.cls-6,.cls-7{stroke-width:0.22px;}.cls-4,.cls-7{stroke:#fbfbfb;}.cls-4{stroke-width:0.66px;}.cls-6,.cls-7{fill:#b3aef6;}</style></defs><g id="Layer_2" data-name="Layer 2"><path class="cls-1" d="M190.77,61.85h-.25l-9.37.47a5.35,5.35,0,0,0,.26,10.7h.27l9.38-.47a5.35,5.35,0,0,0-.29-10.69Z"/><path class="cls-1" d="M193.16,28.19l5.24,0a15.85,15.85,0,0,1,3.08.31,5.45,5.45,0,0,0,1.06.11A5.34,5.34,0,0,0,207,26.16a5.4,5.4,0,0,0-.28,2.19A5.34,5.34,0,0,0,208.62,32a16,16,0,0,1,4.22,5.55,5.37,5.37,0,0,0,4.87,3.13l.35,0a5.34,5.34,0,0,0-3.82,4.74,17.2,17.2,0,0,1-1.94,6.84,5.33,5.33,0,0,0,.87,6.16,5.33,5.33,0,0,0-6.23,0,17.22,17.22,0,0,1-6.53,2.82,5.35,5.35,0,0,0,1.06,10.59,5.44,5.44,0,0,0,1.06-.1,27.92,27.92,0,0,0,10.58-4.57,5.35,5.35,0,0,0,1.29-7.46,5.48,5.48,0,0,0-.48-.58,5.19,5.19,0,0,0,.62.42,5.42,5.42,0,0,0,2.49.61,5.33,5.33,0,0,0,4.74-2.86,27.69,27.69,0,0,0,3.14-11.08A5.36,5.36,0,0,0,220,40.43h-.4l-.33,0a4.54,4.54,0,0,0,.7-.26,5.35,5.35,0,0,0,2.64-7.09,27,27,0,0,0-7-9.27,5.35,5.35,0,0,0-7.54.62,5.58,5.58,0,0,0-.44.64,5,5,0,0,0,.22-.75,5.35,5.35,0,0,0-4.19-6.3,26.66,26.66,0,0,0-5.13-.53l-5.35,0a5.35,5.35,0,0,0,0,10.7Z"/><path class="cls-1" d="M150.2,30.5c2.59,5.62,6.63,11.72,12,11.89h.51c4.26,0,7.45-1.62,8.75-4.43,1.07-2.3.75-5-.93-7.95a7.38,7.38,0,0,0,3.34-3.24,5.36,5.36,0,0,0,3.85,1.63,5.14,5.14,0,0,0,1-.1c.34,0,1.32-.07,3.77-.09a5.36,5.36,0,0,0-.13-10.71c-5.24.06-6,.15-7.29.88a5.31,5.31,0,0,0-1.46,1.23,7.38,7.38,0,0,0-3.55-3c2-3.24,2.51-6.12,1.42-8.59-1.27-2.89-4.48-4.54-8.8-4.54h-.51c-5.94.18-10.23,7.72-12.51,13a7.3,7.3,0,0,0,.51,14Z"/><path class="cls-1" d="M237,195.28a23.42,23.42,0,0,0-13.41-14.73,24,24,0,0,0-8.87-1.68,26.81,26.81,0,0,0-5.14.51l8-50.54A16.28,16.28,0,0,0,201.54,110h-6.76V99.79A5.76,5.76,0,0,0,189,94H154a5.3,5.3,0,0,0,3.68-4.56,17.72,17.72,0,0,1,2.12-6.84,5.34,5.34,0,0,0-.82-6.23,5.35,5.35,0,0,0,6.28.12,17.51,17.51,0,0,1,6.56-2.82A5.35,5.35,0,0,0,176,67.4a5.37,5.37,0,0,0-5.25-4.28,5.44,5.44,0,0,0-1.06.1,28.2,28.2,0,0,0-10.57,4.54,5.36,5.36,0,0,0-1.31,7.45,4.41,4.41,0,0,0,.47.58,4.29,4.29,0,0,0-.6-.42,5.38,5.38,0,0,0-7.27,2.13,28.4,28.4,0,0,0-3.38,11A5.35,5.35,0,0,0,150.66,94h-109a5.76,5.76,0,0,0-5.74,5.75V105a4.46,4.46,0,0,0-1.47,1.07,4.4,4.4,0,0,0-2.79-1.88,10,10,0,0,1-3.87-1.67,4.32,4.32,0,0,0-2.53-.8H25a4.42,4.42,0,0,0-.41-2.84,10.1,10.1,0,0,1-1.16-4.06,4.29,4.29,0,0,0-1.1-2.59,4.44,4.44,0,0,0,1.93-2A9.6,9.6,0,0,1,26.71,87a4.33,4.33,0,0,0,1.44-2.41,4.36,4.36,0,0,0,1.9.46,4.07,4.07,0,0,0,.87-.09,10.13,10.13,0,0,1,1.82-.19h3.39a4.39,4.39,0,0,0,3.1-1.3,3.65,3.65,0,0,0,.35-.43,4.46,4.46,0,0,0,.34.42A4.35,4.35,0,0,0,43,84.72c1.46,0,2.09,0,2.33.06a4.22,4.22,0,0,0,.79.07,4.45,4.45,0,0,0,2.27-.63,5.81,5.81,0,0,0,1.17,1.1,6,6,0,0,0-.23,5.18c1,2.17,3.38,3.41,6.51,3.41h.36c3.81-.12,6.6-4.08,8.41-7.86A5.67,5.67,0,0,0,65,75.46c-1.61-3.61-4.56-8.48-8.76-8.61h-.36c-3.14,0-5.59,1.31-6.55,3.49a6.23,6.23,0,0,0,.49,5.56,5.74,5.74,0,0,0-1.16,1c-.12-.08-.22-.18-.35-.25-1.06-.59-1.75-.64-5.21-.68a4.35,4.35,0,0,0-3.48,1.71,4.39,4.39,0,0,0-3.49-1.73l-3.41,0a17.83,17.83,0,0,0-3.5.35,4.39,4.39,0,0,0-2.79,1.88,4.13,4.13,0,0,0-.62,1.47,4.45,4.45,0,0,0-1.91-.43,4.38,4.38,0,0,0-2.84,1,18.32,18.32,0,0,0-4.79,6.32,4.35,4.35,0,0,0-.13,3.36,4.53,4.53,0,0,0,.83,1.37,4.4,4.4,0,0,0-2.3,4.17A18.79,18.79,0,0,0,16.78,103a4.38,4.38,0,0,0,3.89,2.35h.23a4.38,4.38,0,0,0,1.77,4.38,19,19,0,0,0,7.2,3.11,5.14,5.14,0,0,0,.88.08A4.42,4.42,0,0,0,34,111.46a4.3,4.3,0,0,0,1.86,1.59v21H34.21a15.33,15.33,0,0,0-14.87,19L34.6,214.23a15.64,15.64,0,0,0,15.2,11.88H155c6.77,8.94,17.27,17.63,31.24,25.86a11.66,11.66,0,0,0,11.86,0c15.64-9.21,26.91-19,33.49-29C239.47,210.88,238.88,201.24,237,195.28Z"/><rect class="cls-2" x="38.5" y="96.68" width="153.64" height="96.79" rx="3.11"/><path class="cls-2" d="M177.72,25.78a2.72,2.72,0,0,1-1.33-5.09c.66-.37.86-.48,6-.54a2.68,2.68,0,0,1,2.75,2.68,2.71,2.71,0,0,1-2.68,2.75c-2.91,0-3.85.09-4.12.12A3,3,0,0,1,177.72,25.78Zm1.32-.35h0Zm0,0Z"/><path class="cls-2" d="M158.26,110.47a2.7,2.7,0,0,1-2.3-1.27,69.86,69.86,0,0,1-3.91-7c-.27-.57-.51-1.14-.74-1.7a2.72,2.72,0,1,1,5.05-2q.27.67.6,1.35a63.78,63.78,0,0,0,3.59,6.46,2.72,2.72,0,0,1-2.29,4.17Zm-5.92-18.79h-.26a2.72,2.72,0,0,1-2.45-3,25.87,25.87,0,0,1,3.07-9.95,2.72,2.72,0,0,1,4.77,2.61A20.35,20.35,0,0,0,155,89.23,2.71,2.71,0,0,1,152.34,91.68Zm9.83-16.82a2.72,2.72,0,0,1-1.56-4.94,25.46,25.46,0,0,1,9.58-4.11,2.72,2.72,0,1,1,1.09,5.32,20.16,20.16,0,0,0-7.55,3.24A2.72,2.72,0,0,1,162.17,74.86Zm19.24-4.48a2.72,2.72,0,0,1-.13-5.43l9.37-.47a2.72,2.72,0,1,1,.27,5.43l-9.37.47Zm20.06-1.25a2.72,2.72,0,0,1-.53-5.38,19.8,19.8,0,0,0,7.52-3.25,2.72,2.72,0,0,1,3.13,4.44A25.12,25.12,0,0,1,202,69.07,2.48,2.48,0,0,1,201.47,69.13ZM217,57.45a2.71,2.71,0,0,1-2.4-4,19.78,19.78,0,0,0,2.23-7.89,2.72,2.72,0,0,1,5.43.38,25.37,25.37,0,0,1-2.85,10A2.73,2.73,0,0,1,217,57.45ZM217.71,38a2.7,2.7,0,0,1-2.47-1.58A18.76,18.76,0,0,0,210.33,30a2.72,2.72,0,0,1,3.51-4.15,24.27,24.27,0,0,1,6.34,8.36,2.73,2.73,0,0,1-1.34,3.6A2.67,2.67,0,0,1,217.71,38ZM202.54,26A3.29,3.29,0,0,1,202,26a18.69,18.69,0,0,0-3.59-.37l-5.24,0a2.73,2.73,0,0,1-2.71-2.73,2.69,2.69,0,0,1,2.73-2.71l5.26,0a24.63,24.63,0,0,1,4.62.47,2.72,2.72,0,0,1-.53,5.38Z"/><path class="cls-2" d="M167.69,122.83a2.7,2.7,0,0,1-2-.91c-1.09-1.23-2.16-2.47-3.16-3.7a2.72,2.72,0,0,1,4.21-3.44c.95,1.17,2,2.36,3,3.53a2.71,2.71,0,0,1-.22,3.83A2.67,2.67,0,0,1,167.69,122.83Z"/><rect class="cls-2" x="147.33" y="18.72" width="24.75" height="9.37" rx="4.68"/><path class="cls-3" d="M151.26,19.65S156,6.3,162.28,6.11s11.09,3.8,2.58,12.89A63.88,63.88,0,0,1,151.26,19.65Z"/><path class="cls-3" d="M151.26,26.22s4.77,13.34,11,13.54,11.09-3.81,2.58-12.9A63.48,63.48,0,0,0,151.26,26.22Z"/><path class="cls-2" d="M45.71,82.17c-.18,0-.79-.06-2.67-.08a1.76,1.76,0,0,1-1.74-1.78,1.74,1.74,0,0,1,1.78-1.74c3.35,0,3.48.11,3.91.35a1.76,1.76,0,0,1-.86,3.3A2,2,0,0,1,45.71,82.17ZM45.28,82Zm0,0Zm12.53,54.8a1.74,1.74,0,0,1-.55-2.42,42.21,42.21,0,0,0,2.33-4.19c.13-.29.26-.58.38-.88a1.76,1.76,0,0,1,3.27,1.3c-.15.37-.31.73-.48,1.1a43.49,43.49,0,0,1-2.53,4.55,1.77,1.77,0,0,1-1.49.82A1.68,1.68,0,0,1,57.8,136.79Zm3-13.48a13.13,13.13,0,0,0-1.57-5.09,1.76,1.76,0,0,1,3.09-1.69,16.73,16.73,0,0,1,2,6.44,1.76,1.76,0,0,1-1.59,1.92h-.17A1.77,1.77,0,0,1,60.81,123.31Zm-5.62-9.62a12.91,12.91,0,0,0-4.89-2.1,1.76,1.76,0,0,1,.7-3.45,16.58,16.58,0,0,1,6.21,2.66,1.76,1.76,0,0,1-1,3.2A1.79,1.79,0,0,1,55.19,113.69ZM43.65,111.1l-6.07-.3a1.76,1.76,0,0,1,.17-3.52l6.07.31a1.76,1.76,0,0,1-.08,3.51Zm-13.25-.84a16.4,16.4,0,0,1-6.21-2.68,1.76,1.76,0,0,1,2-2.88,12.84,12.84,0,0,0,4.87,2.11,1.76,1.76,0,0,1-.34,3.48A2,2,0,0,1,30.4,110.26Zm-11.29-8.47a16.14,16.14,0,0,1-1.84-6.51A1.76,1.76,0,0,1,20.78,95a12.83,12.83,0,0,0,1.44,5.11,1.74,1.74,0,0,1-.73,2.37,1.72,1.72,0,0,1-.82.21A1.77,1.77,0,0,1,19.11,101.79ZM19.5,90a1.76,1.76,0,0,1-.87-2.33,15.7,15.7,0,0,1,4.11-5.41A1.76,1.76,0,1,1,25,84.94a12.09,12.09,0,0,0-3.18,4.19A1.75,1.75,0,0,1,19.5,90Zm8.83-9a1.76,1.76,0,0,1,1.38-2.07,15.82,15.82,0,0,1,3-.31l3.4,0a1.76,1.76,0,0,1,0,3.52l-3.39,0a11.3,11.3,0,0,0-2.33.24,2,2,0,0,1-.35,0A1.76,1.76,0,0,1,28.33,81Zm24.29,64.12a1.76,1.76,0,0,0,1.32-.59c.71-.79,1.39-1.6,2-2.4a1.76,1.76,0,1,0-2.72-2.22c-.62.75-1.28,1.52-1.95,2.28a1.77,1.77,0,0,0,.14,2.49A1.81,1.81,0,0,0,52.62,145.07Z"/><rect class="cls-2" x="49.78" y="77.65" width="16.03" height="6.07" rx="3.03" transform="translate(115.59 161.36) rotate(180)"/><path class="cls-3" d="M63.26,78.24s-3.08-8.64-7.13-8.76S49,71.94,54.46,77.83A41,41,0,0,0,63.26,78.24Z"/><path class="cls-3" d="M63.26,82.5s-3.08,8.64-7.13,8.77S49,88.81,54.46,82.92A41.35,41.35,0,0,1,63.26,82.5Z"/><path class="cls-4" d="M21.89,152.43l15.26,61.16a13,13,0,0,0,12.66,9.89H178.16A25.47,25.47,0,0,0,203.31,202L215,128.43a13.63,13.63,0,0,0-13.46-15.78H148a33.12,33.12,0,0,0-21.47,7.9l-19.14,16.3-73.1-.19A12.7,12.7,0,0,0,21.89,152.43Z"/><path class="cls-5" d="M49.81,214.7a4.27,4.27,0,0,1-4.14-3.23L30.41,150.3a3.92,3.92,0,0,1,3.8-4.86l76.35.2,21.61-18.4A24.39,24.39,0,0,1,148,121.43h53.59a4.86,4.86,0,0,1,4.79,5.62l-11.7,73.59a16.6,16.6,0,0,1-16.47,14.06Z"/><path class="cls-3" d="M49.81,214.7a4.27,4.27,0,0,1-4.14-3.23L30.41,150.3a3.92,3.92,0,0,1,3.8-4.86l76.35.2,21.61-18.4A24.39,24.39,0,0,1,148,121.43h53.59a4.86,4.86,0,0,1,4.79,5.62l-11.7,73.59a16.6,16.6,0,0,1-16.47,14.06Z"/><ellipse class="cls-6" cx="100.9" cy="171.04" rx="4.73" ry="6.89"/><ellipse class="cls-6" cx="135.98" cy="171.04" rx="4.73" ry="6.89"/><rect class="cls-7" x="110.18" y="184.1" width="16.33" height="5.05" rx="2.53"/><path class="cls-3" d="M229.36,221.5c-5.76,8.79-16,18.41-32.63,28.2a9,9,0,0,1-9.18,0c-16.62-9.79-26.87-19.41-32.62-28.19-12.59-19.2-3.75-34.38,6.75-38.51,15.71-6.2,30.46,8.82,30.46,8.82s14.76-15,30.47-8.82C233.1,187.13,241.94,202.31,229.36,221.5Z"/><path class="cls-6" d="M197.56,221.67s0,0,0,0H203a5.44,5.44,0,0,0,5.42-5.43h0A5.44,5.44,0,0,0,203,210.8h-5.39s0,0,0,0v-5.4a5.44,5.44,0,0,0-5.42-5.42h0a5.44,5.44,0,0,0-5.42,5.42v5.4a0,0,0,0,1,0,0h-5.24a5.54,5.54,0,0,0-5.54,4.78,5.44,5.44,0,0,0,5.38,6.07h5.4a0,0,0,0,1,0,0v5.4a5.44,5.44,0,0,0,5.42,5.42h0a5.44,5.44,0,0,0,5.42-5.42Z"/></g></svg>
