<svg width="32" height="32" viewBox="0 0 32 32" fill="none" xmlns="http://www.w3.org/2000/svg">
<path fill-rule="evenodd" clip-rule="evenodd" d="M6.88199 4H25.1181C25.8209 3.99998 26.4273 3.99996 26.9267 4.04076C27.4539 4.08383 27.9782 4.17892 28.4827 4.43598C29.2353 4.81947 29.8472 5.43139 30.2307 6.18404C30.4878 6.68855 30.5829 7.21284 30.6259 7.73997C30.6668 8.23939 30.6667 8.84573 30.6667 9.54858V11.3333C30.6667 12.0697 30.0698 12.6667 29.3334 12.6667C27.4924 12.6667 26 14.1591 26 16C26 17.841 27.4924 19.3333 29.3334 19.3333C30.0698 19.3333 30.6667 19.9303 30.6667 20.6667V22.4514C30.6667 23.1543 30.6668 23.7606 30.6259 24.26C30.5829 24.7872 30.4878 25.3115 30.2307 25.816C29.8472 26.5686 29.2353 27.1805 28.4827 27.564C27.9782 27.8211 27.4539 27.9162 26.9267 27.9592C26.4273 28 25.821 28 25.1181 28H6.88196C6.1791 28 5.57276 28 5.07334 27.9592C4.54621 27.9162 4.02192 27.8211 3.51742 27.564C2.76477 27.1805 2.15285 26.5686 1.76935 25.816C1.51229 25.3115 1.41721 24.7872 1.37414 24.26C1.33333 23.7606 1.33335 23.1543 1.33338 22.4514V20.6667C1.33338 19.9303 1.93033 19.3333 2.66671 19.3333C4.50766 19.3333 6.00004 17.841 6.00004 16C6.00004 14.1591 4.50766 12.6667 2.66671 12.6667C1.93033 12.6667 1.33338 12.0697 1.33338 11.3333V9.54856C1.33335 8.84573 1.33333 8.23937 1.37414 7.73997C1.41721 7.21284 1.51229 6.68855 1.76935 6.18404C2.15285 5.43139 2.76477 4.81947 3.51742 4.43598C4.02192 4.17892 4.54621 4.08383 5.07334 4.04076C5.57275 3.99996 6.17916 3.99998 6.88199 4ZM14.6667 8.66667C14.6667 7.93029 14.0698 7.33333 13.3334 7.33333C12.597 7.33333 12 7.93029 12 8.66667V10C12 10.7364 12.597 11.3333 13.3334 11.3333C14.0698 11.3333 14.6667 10.7364 14.6667 10V8.66667ZM13.3334 14C14.0698 14 14.6667 14.597 14.6667 15.3333V16.6667C14.6667 17.403 14.0698 18 13.3334 18C12.597 18 12 17.403 12 16.6667V15.3333C12 14.597 12.597 14 13.3334 14ZM14.6667 22C14.6667 21.2636 14.0698 20.6667 13.3334 20.6667C12.597 20.6667 12 21.2636 12 22V23.3333C12 24.0697 12.597 24.6667 13.3334 24.6667C14.0698 24.6667 14.6667 24.0697 14.6667 23.3333V22Z" fill="#171717"/>
</svg>
